<svg xmlns:rdf="http://www.w3.org/1999/02/22-rdf-syntax-ns#" xmlns="http://www.w3.org/2000/svg" height="76.383" width="416.52" version="1.1" xmlns:cc="http://creativecommons.org/ns#" xmlns:dc="http://purl.org/dc/elements/1.1/" viewBox="0 0 416.51801 76.383095">
<g transform="translate(-562.18 -403.96)">
<g transform="translate(529.38 669.3)" fill="#fff">
<path d="m35.339-256.13c-1.4353 0-2.533 1.0977-2.533 2.533v48.632l4.2669 0.0547v4.2126l4.2702 0.0547v-12.804h4.2669v12.75h4.2704v-12.75h4.2669v12.804h4.2669v-12.804h4.2704v12.75h4.2669v-12.75h4.2669v12.75h4.2704v-12.75h4.2669v12.75h4.2704v-4.267h4.2669v-48.632c-0.00075-1.4351-1.0984-2.5328-2.5337-2.5328h-50.421zm6.0043 8.4827h38.412v25.608h-38.412v-25.608z"/>
<g transform="translate(-7.1509 -67.401)">
<g style="color:#000000">
<path d="m130.33-187.13q0-2.55-0.69-4.53-0.66-2.01-1.89-3.39-1.2-1.41-2.91-2.13-1.68-0.75-3.72-0.75-2.07 0-3.78 0.75t-2.94 2.16q-1.23 1.38-1.92 3.39-0.66 2.01-0.66 4.56t0.66 4.56q0.69 1.98 1.89 3.39 1.23 1.38 2.91 2.13 1.71 0.72 3.78 0.72 2.04 0 3.75-0.75t2.94-2.13q1.23-1.41 1.89-3.42 0.69-2.01 0.69-4.56zm-4.32 0.06q0 3.21-1.35 4.92-1.32 1.71-3.54 1.71t-3.6-1.74-1.38-4.95 1.32-4.92q1.35-1.71 3.57-1.71t3.6 1.74 1.38 4.95z"/>
<path d="m150.97-190.94q0-1.68-0.57-2.91-0.57-1.26-1.56-2.1t-2.31-1.23q-1.32-0.42-2.79-0.42h-9.18v21h4.2v-7.44h4.62q1.62 0 3-0.39 1.41-0.39 2.43-1.23t1.59-2.13q0.57-1.32 0.57-3.15zm-4.32 0.09q0 2.73-3 2.73h-4.89v-5.4h4.83q1.41 0 2.22 0.66 0.84 0.63 0.84 2.01z"/>
<path d="m169.98-176.6v-4.11h-10.83v-5.07h6.03v-4.08h-6.03v-3.63h10.38v-4.11h-14.58v21h15.03z"/>
<path d="m191.47-176.6v-21h-4.14v8.88q0 0.45 0 1.11 0.03 0.66 0.03 1.35 0 0.66 0 1.26 0.03 0.57 0.03 0.87-0.21-0.42-0.66-1.08-0.42-0.69-0.81-1.29l-7.44-11.1h-4.02v21h4.14v-9.24q0-0.45-0.03-1.11 0-0.66 0-1.32 0-0.69-0.03-1.26 0-0.6 0-0.9 0.21 0.42 0.63 1.11 0.45 0.66 0.84 1.26l7.71 11.46h3.75z"/>
<path d="m209.8-182.12q0-1.17-0.3-2.07t-1.02-1.65q-0.69-0.75-1.86-1.38t-2.91-1.26q-1.59-0.57-2.58-1.05-0.96-0.48-1.5-0.96-0.54-0.51-0.72-1.02-0.18-0.54-0.18-1.2 0-0.63 0.21-1.17 0.24-0.57 0.72-0.99 0.51-0.42 1.29-0.66 0.78-0.27 1.86-0.27 1.59 0 2.73 0.51 1.17 0.48 2.31 1.44l1.5-1.83q-1.32-1.05-2.82-1.65-1.47-0.6-3.57-0.6-1.47 0-2.7 0.36-1.2 0.36-2.07 1.08-0.84 0.69-1.32 1.68t-0.48 2.25q0 1.14 0.3 2.01 0.33 0.87 1.02 1.59 0.72 0.69 1.86 1.32 1.17 0.6 2.88 1.2 1.44 0.51 2.4 1.02 0.96 0.48 1.53 0.99 0.6 0.51 0.84 1.11t0.24 1.32q0 1.68-1.23 2.64-1.2 0.96-3.3 0.96-1.62 0-3-0.69t-2.58-1.83l-1.56 1.74q1.26 1.26 3.06 2.1 1.83 0.81 3.99 0.81 1.65 0 2.94-0.45t2.19-1.23 1.35-1.86q0.48-1.08 0.48-2.31z"/>
<path d="m229.77-176.6v-21h-2.34v8.97h-10.44v-8.97h-2.34v21h2.34v-9.9h10.44v9.9h2.34z"/>
<path d="m237.77-176.6v-21h-2.34v21h2.34z"/>
<path d="m255.75-195.47v-2.13h-12.33v21h2.34v-9.78h5.76v-2.13h-5.76v-6.96h9.99z"/>
<path d="m273.3-195.47v-2.13h-14.7v2.13h6.18v18.87h2.34v-18.87h6.18z"/>
<path d="m299.78-179.75-1.62-1.41q-1.02 1.32-2.25 2.04t-2.94 0.72q-1.32 0-2.46-0.63-1.14-0.66-1.98-1.8-0.84-1.17-1.32-2.76-0.45-1.62-0.45-3.54t0.45-3.51q0.48-1.59 1.29-2.73t1.95-1.77q1.14-0.66 2.49-0.66 1.71 0 2.79 0.63t2.1 2.01l1.86-1.41q-2.43-3.36-6.69-3.36-1.89 0-3.48 0.84-1.59 0.81-2.73 2.25-1.11 1.44-1.74 3.45-0.63 1.98-0.63 4.32 0 2.31 0.6 4.29t1.71 3.42 2.67 2.28q1.59 0.81 3.51 0.81 2.31 0 4.02-0.96t2.85-2.52z"/>
<path d="m320.13-187.13q0-2.37-0.63-4.35t-1.77-3.42-2.76-2.22q-1.59-0.81-3.54-0.81t-3.57 0.81-2.76 2.25-1.77 3.45q-0.63 1.98-0.63 4.35t0.6 4.35q0.63 1.98 1.77 3.42t2.73 2.25q1.62 0.78 3.57 0.78t3.57-0.81 2.76-2.25q1.17-1.44 1.8-3.42 0.63-2.01 0.63-4.38zm-2.34 0.06q0 1.98-0.48 3.6-0.48 1.59-1.32 2.73-0.84 1.11-2.01 1.74-1.17 0.6-2.52 0.6-1.38 0-2.55-0.6-1.17-0.63-2.04-1.77-0.84-1.17-1.35-2.76-0.48-1.62-0.48-3.6t0.48-3.57q0.48-1.62 1.32-2.73 0.84-1.14 1.98-1.74 1.17-0.63 2.52-0.63 1.38 0 2.55 0.63 1.17 0.6 2.04 1.77 0.87 1.14 1.35 2.76 0.51 1.59 0.51 3.57z"/>
<path d="m342.87-176.6v-21h-2.55l-5.01 12.57q-0.18 0.45-0.42 1.02-0.21 0.57-0.42 1.14t-0.39 1.08-0.27 0.84q-0.09-0.33-0.27-0.81-0.18-0.51-0.39-1.08t-0.45-1.14q-0.21-0.57-0.39-1.05l-4.95-12.57h-2.61v21h2.25v-14.22-2.25q0.09 0.3 0.21 0.75 0.15 0.42 0.3 0.9 0.18 0.45 0.36 0.96 0.18 0.48 0.36 0.87l5.52 13.53 5.61-13.53q0.18-0.42 0.36-0.9t0.36-0.93q0.18-0.48 0.3-0.9 0.15-0.45 0.24-0.75v2.25 14.22h2.25z"/>
<path d="m366.49-176.6v-21h-2.55l-5.01 12.57q-0.18 0.45-0.42 1.02-0.21 0.57-0.42 1.14t-0.39 1.08-0.27 0.84q-0.09-0.33-0.27-0.81-0.18-0.51-0.39-1.08t-0.45-1.14q-0.21-0.57-0.39-1.05l-4.95-12.57h-2.61v21h2.25v-14.22-2.25q0.09 0.3 0.21 0.75 0.15 0.42 0.3 0.9 0.18 0.45 0.36 0.96 0.18 0.48 0.36 0.87l5.52 13.53 5.61-13.53q0.18-0.42 0.36-0.9t0.36-0.93q0.18-0.48 0.3-0.9 0.15-0.45 0.24-0.75v2.25 14.22h2.25z"/>
<path d="m386.95-185.18v-12.42h-2.34v12.48q0 3.42-1.17 5.07t-3.9 1.65q-5.37 0-5.37-6.78v-12.42h-2.34v12.48q0 4.38 1.89 6.63 1.92 2.22 5.7 2.22 3.81 0 5.67-2.25 1.86-2.28 1.86-6.66z"/>
<path d="m407.43-176.6v-21h-2.25v15.84 1.44q-0.09-0.21-0.3-0.54-0.18-0.33-0.39-0.69-0.21-0.39-0.42-0.75-0.21-0.39-0.39-0.66l-9.09-14.64h-2.28v21h2.25v-15.57-1.44q0.09 0.21 0.27 0.54 0.21 0.33 0.42 0.72 0.21 0.36 0.42 0.75 0.21 0.36 0.39 0.63l9.18 14.37h2.19z"/>
<path d="m415.43-176.6v-21h-2.34v21h2.34z"/>
<path d="m434.49-195.47v-2.13h-14.7v2.13h6.18v18.87h2.34v-18.87h6.18z"/>
<path d="m454.11-197.6h-2.61l-3.36 6.03q-0.63 1.14-1.29 2.37-0.63 1.2-1.08 2.13-0.45-0.93-1.11-2.13-0.63-1.23-1.26-2.37l-3.36-6.03h-2.67l7.2 12.69v8.31h2.34v-8.34l7.2-12.66z"/>
</g>
<g style="color:#000000">
<path d="m140.14-128.51-3.24-2.82q-2.04 2.64-4.5 4.08t-5.88 1.44q-2.64 0-4.92-1.26-2.28-1.32-3.96-3.6-1.68-2.34-2.64-5.52-0.9-3.24-0.9-7.08t0.9-7.02q0.96-3.18 2.58-5.46t3.9-3.54q2.28-1.32 4.98-1.32 3.42 0 5.58 1.26t4.2 4.02l3.72-2.82q-4.86-6.72-13.38-6.72-3.78 0-6.96 1.68-3.18 1.62-5.46 4.5-2.22 2.88-3.48 6.9-1.26 3.96-1.26 8.64 0 4.62 1.2 8.58t3.42 6.84 5.34 4.56q3.18 1.62 7.02 1.62 4.62 0 8.04-1.92t5.7-5.04z"/>
<path d="m180-122.21-14.58-42h-5.16l-14.58 42h4.8l3.66-10.68h17.34l3.6 10.68h4.92zm-9.96-14.94h-14.46l4.62-13.68q0.36-1.08 0.78-2.28 0.42-1.26 0.78-2.4t0.6-2.1q0.3-0.96 0.48-1.62 0.18 0.66 0.42 1.68 0.3 0.96 0.66 2.1 0.36 1.08 0.72 2.28 0.42 1.2 0.78 2.22l4.62 13.8z"/>
<path d="m218.38-152.33q0-3.06-1.02-5.28t-2.76-3.66q-1.74-1.5-4.14-2.22t-5.16-0.72h-16.62v42h4.68v-17.88h9.96l9 17.88h5.4l-9.24-18.24q4.5-0.96 7.2-3.96t2.7-7.92zm-4.68 0.18q0 3.96-2.28 5.94-2.22 1.92-6.9 1.92h-11.16v-15.66h11.76q4.2 0 6.36 1.98 2.22 1.92 2.22 5.82z"/>
<path d="m253.35-159.95v-4.26h-29.4v4.26h12.36v37.74h4.68v-37.74h12.36z"/>
<path d="m291.51-152.33q0-3.06-1.02-5.28t-2.76-3.66q-1.74-1.5-4.14-2.22t-5.16-0.72h-16.62v42h4.68v-17.88h9.96l9 17.88h5.4l-9.24-18.24q4.5-0.96 7.2-3.96t2.7-7.92zm-4.68 0.18q0 3.96-2.28 5.94-2.22 1.92-6.9 1.92h-11.16v-15.66h11.76q4.2 0 6.36 1.98 2.22 1.92 2.22 5.82z"/>
<path d="m305.81-122.21v-42h-4.68v42h4.68z"/>
<path d="m347.36-143.51q0-5.4-1.44-9.3t-4.02-6.42q-2.52-2.58-6.06-3.78-3.48-1.2-7.62-1.2h-11.1v42h10.26q4.2 0 7.86-1.14 3.66-1.2 6.36-3.78t4.2-6.6q1.56-4.08 1.56-9.78zm-4.68 0.18q0 4.5-1.02 7.74-1.02 3.18-2.94 5.22t-4.62 3q-2.7 0.9-6.12 0.9h-6.18v-33.48h6.06q7.26 0 11.04 4.26t3.78 12.36z"/>
<path d="m387.33-138.95v-4.08h-12.12v4.32h7.56v0.36q0 6.18-2.82 9.36-2.76 3.18-8.04 3.18-2.64 0-4.92-1.26-2.28-1.32-3.96-3.6-1.62-2.34-2.58-5.52-0.96-3.24-0.96-7.08t0.9-7.02q0.96-3.18 2.58-5.46t3.9-3.54q2.28-1.32 4.98-1.32 3.42 0 5.58 1.26t4.2 4.02l3.72-2.82q-4.86-6.72-13.38-6.72-3.78 0-6.96 1.68-3.18 1.62-5.46 4.5-2.22 2.88-3.48 6.9-1.26 3.96-1.26 8.64 0 4.62 1.2 8.58t3.42 6.84 5.34 4.56q3.18 1.62 7.02 1.62 3.3 0 6.12-1.08 2.88-1.08 4.98-3.24 2.1-2.22 3.24-5.46 1.2-3.3 1.2-7.62z"/>
<path d="m422.38-122.21v-4.26h-21.6v-16.02h12v-4.26h-12v-13.2h20.7v-4.26h-25.38v42h26.28z"/>
<path d="m456.47-133.25q0-2.34-0.6-4.14t-2.04-3.3q-1.38-1.5-3.72-2.76t-5.82-2.52q-3.18-1.14-5.16-2.1-1.92-0.96-3-1.92-1.08-1.02-1.44-2.04-0.36-1.08-0.36-2.4 0-1.26 0.42-2.34 0.48-1.14 1.44-1.98 1.02-0.84 2.58-1.32 1.56-0.54 3.72-0.54 3.18 0 5.46 1.02 2.34 0.96 4.62 2.88l3-3.66q-2.64-2.1-5.64-3.3-2.94-1.2-7.14-1.2-2.94 0-5.4 0.72-2.4 0.72-4.14 2.16-1.68 1.38-2.64 3.36t-0.96 4.5q0 2.28 0.6 4.02 0.66 1.74 2.04 3.18 1.44 1.38 3.72 2.64 2.34 1.2 5.76 2.4 2.88 1.02 4.8 2.04 1.92 0.96 3.06 1.98 1.2 1.02 1.68 2.22t0.48 2.64q0 3.36-2.46 5.28-2.4 1.92-6.6 1.92-3.24 0-6-1.38t-5.16-3.66l-3.12 3.48q2.52 2.52 6.12 4.2 3.66 1.62 7.98 1.62 3.3 0 5.88-0.9t4.38-2.46 2.7-3.72q0.96-2.16 0.96-4.62z"/>
</g>
</g>
</g>
</g>
</svg>
