<svg xmlns:rdf="http://www.w3.org/1999/02/22-rdf-syntax-ns#" xmlns="http://www.w3.org/2000/svg" height="136.16" width="295.58" version="1.1" xmlns:cc="http://creativecommons.org/ns#" xmlns:dc="http://purl.org/dc/elements/1.1/" viewBox="0 0 295.58505 136.16429">
<g transform="translate(-422.86 -137.17)">
<g transform="matrix(.54145 -.000099136 -.025176 .54145 420.2 3.807)">
<path style="color:#000000" fill="#9a9b9c" d="m84.874 401.37 0.96115-0.43945c0.50403-0.23046 0.9963-0.24687 1.3685-0.0456 0.37222 0.20127 0.59389 0.60371 0.61625 1.1188l3.5073 80.79c0.02236 0.51507-0.15643 1.1006-0.49702 1.6277-0.34059 0.52716-0.8151 0.95278-1.3191 1.1832l-0.96115 0.43944c-0.50403 0.23044-0.9963 0.24687-1.3685 0.0456-0.37221-0.20127-0.59388-0.6037-0.61624-1.1188l-3.5073-80.79c-0.02236-0.51507 0.15643-1.1006 0.49702-1.6277 0.34059-0.52717 0.81509-0.9528 1.3191-1.1832m19.455-8.8951 0.96115-0.43945c0.50404-0.23045 0.9963-0.24688 1.3685-0.0456 0.37221 0.20126 0.59389 0.60369 0.61625 1.1188l3.5073 80.79c0.0224 0.51508-0.15643 1.1006-0.49702 1.6278-0.3406 0.52714-0.81509 0.95277-1.3191 1.1832l-0.96114 0.43944c-0.50403 0.23044-0.9963 0.24687-1.3685 0.0456-0.37222-0.20126-0.59389-0.60369-0.61625-1.1188l-3.5073-80.79c-0.0224-0.51507 0.15641-1.1006 0.497-1.6278 0.3406-0.52717 0.8151-0.95278 1.3191-1.1832m19.455-8.8951 0.96115-0.43943c0.50404-0.23047 0.9963-0.24688 1.3685-0.0456 0.37221 0.20126 0.59387 0.6037 0.61624 1.1188l3.5073 80.79c0.0224 0.51508-0.15642 1.1006-0.49702 1.6278-0.3406 0.52715-0.81509 0.95278-1.3191 1.1832l-0.96115 0.43942c-0.50402 0.23046-0.99629 0.24687-1.3685 0.0456-0.37222-0.20126-0.59388-0.6037-0.61624-1.1188l-3.5073-80.79c-0.0224-0.51507 0.15642-1.1006 0.49701-1.6278 0.34059-0.52718 0.8151-0.95279 1.3191-1.1832m19.455-8.8951 0.96115-0.43945c0.50402-0.23045 0.9963-0.24687 1.3685-0.0456 0.37221 0.20126 0.59388 0.60369 0.61625 1.1188l3.5073 80.79c0.0224 0.51508-0.15643 1.1006-0.49702 1.6278-0.3406 0.52716-0.8151 0.95277-1.3191 1.1832l-0.96115 0.43944c-0.50402 0.23044-0.9963 0.24688-1.3685 0.0456-0.37222-0.20126-0.59388-0.60369-0.61624-1.1188l-3.5073-80.79c-0.0224-0.51508 0.15641-1.1006 0.497-1.6278 0.34059-0.52716 0.8151-0.95278 1.3191-1.1832m19.455-8.8951 0.96115-0.43944c0.50402-0.23045 0.9963-0.24686 1.3685-0.0456s0.59386 0.6037 0.61623 1.1188l3.5073 80.79c0.0224 0.51508-0.15641 1.1006-0.49701 1.6278-0.3406 0.52717-0.8151 0.95279-1.3191 1.1832l-0.96115 0.43943c-0.50402 0.23045-0.99629 0.24688-1.3685 0.0456-0.37221-0.20127-0.59387-0.60371-0.61623-1.1188l-3.5073-80.79c-0.0224-0.51507 0.15642-1.1006 0.497-1.6277 0.3406-0.52718 0.81511-0.95279 1.3191-1.1832m19.455-8.8951 0.96115-0.43945c0.50402-0.23045 0.9963-0.24687 1.3685-0.0456 0.37222 0.20126 0.59388 0.60371 0.61625 1.1188l3.5073 80.79c0.0224 0.51507-0.15642 1.1006-0.49702 1.6277-0.34059 0.52716-0.81509 0.95278-1.3191 1.1832l-0.96115 0.43944c-0.50402 0.23044-0.9963 0.24687-1.3685 0.0456-0.37221-0.20127-0.59388-0.6037-0.61624-1.1188l-3.5073-80.79c-0.0224-0.51507 0.15643-1.1006 0.49701-1.6277 0.3406-0.52718 0.81511-0.95279 1.3191-1.1832m19.455-8.8951 0.96115-0.43945c0.50402-0.23045 0.9963-0.24687 1.3685-0.0456 0.37222 0.20127 0.59388 0.6037 0.61625 1.1188l3.5073 80.79c0.0224 0.51508-0.15642 1.1006-0.49702 1.6278-0.34059 0.52716-0.8151 0.95277-1.3191 1.1832l-0.96115 0.43944c-0.50403 0.23045-0.99629 0.24687-1.3685 0.0456s-0.59388-0.6037-0.61624-1.1188l-3.5073-80.79c-0.0224-0.51506 0.15643-1.1006 0.49702-1.6277 0.3406-0.52718 0.8151-0.95278 1.3191-1.1832m19.455-8.8951 0.96115-0.43945c0.50402-0.23044 0.9963-0.24687 1.3685-0.0456 0.37222 0.20126 0.59388 0.6037 0.61624 1.1188l3.5073 80.79c0.0224 0.51507-0.15642 1.1006-0.49701 1.6278-0.34059 0.52716-0.8151 0.95278-1.3191 1.1832l-0.96115 0.43944c-0.50403 0.23045-0.9963 0.24686-1.3685 0.0456-0.37221-0.20128-0.59388-0.6037-0.61625-1.1188l-3.5073-80.79c-0.0224-0.51507 0.15642-1.1006 0.49701-1.6277 0.3406-0.52719 0.81509-0.95278 1.3191-1.1832m19.455-8.8951 0.96116-0.43944c0.50402-0.23045 0.99629-0.24688 1.3685-0.0456 0.37222 0.20126 0.59388 0.60369 0.61624 1.1188l3.5073 80.79c0.0224 0.51508-0.15641 1.1006-0.49701 1.6278-0.34059 0.52716-0.8151 0.95278-1.3191 1.1832l-0.96116 0.43944c-0.50402 0.23045-0.99629 0.24687-1.3685 0.0456s-0.59388-0.60369-0.61625-1.1188l-3.5073-80.79c-0.0224-0.51507 0.15642-1.1006 0.49702-1.6278 0.34059-0.52717 0.81509-0.95277 1.3191-1.1832m19.455-8.8951 0.96116-0.43942c0.50402-0.23047 0.99629-0.24688 1.3685-0.0456 0.37221 0.20126 0.59388 0.60369 0.61624 1.1188l3.5073 80.79c0.0224 0.51507-0.15642 1.1006-0.497 1.6278-0.34059 0.52717-0.8151 0.95279-1.3191 1.1832l-0.96116 0.43942c-0.50402 0.23047-0.9963 0.24688-1.3685 0.0456-0.37221-0.20126-0.59388-0.60369-0.61625-1.1188l-3.5073-80.79c-0.0224-0.51507 0.15642-1.1006 0.49701-1.6278 0.34059-0.52717 0.81509-0.95279 1.3191-1.1832m19.455-8.8951 0.96115-0.43944c0.50403-0.23045 0.99629-0.24687 1.3685-0.0456 0.37222 0.20127 0.59389 0.60369 0.61625 1.1188l3.5073 80.79c0.0224 0.51507-0.15642 1.1006-0.49701 1.6278-0.34059 0.52718-0.8151 0.95277-1.3191 1.1832l-0.96115 0.43945c-0.50403 0.23045-0.99629 0.24688-1.3685 0.0456-0.37221-0.20126-0.59389-0.60369-0.61625-1.1188l-3.5073-80.79c-0.0224-0.51508 0.15642-1.1006 0.49702-1.6278 0.34059-0.52716 0.81509-0.95278 1.3191-1.1832m19.455-8.8951 0.96114-0.43944c0.50404-0.23045 0.9963-0.24686 1.3685-0.0456 0.37222 0.20128 0.59389 0.6037 0.61625 1.1188l3.5073 80.79c0.0224 0.51507-0.15642 1.1006-0.497 1.6277-0.3406 0.52719-0.8151 0.95279-1.3191 1.1832l-0.96115 0.43945c-0.50403 0.23045-0.9963 0.24687-1.3685 0.0455-0.37222-0.20125-0.59389-0.60369-0.61625-1.1188l-3.5073-80.79c-0.0224-0.51507 0.15642-1.1006 0.49702-1.6278 0.34058-0.52716 0.81509-0.95278 1.3191-1.1832m19.455-8.8951 0.96115-0.43944c0.50404-0.23045 0.99629-0.24687 1.3685-0.0456s0.59389 0.6037 0.61625 1.1188l3.5073 80.79c0.0224 0.51506-0.15642 1.1006-0.49702 1.6277-0.34059 0.52718-0.81509 0.95278-1.3191 1.1832l-0.96114 0.43945c-0.50403 0.23045-0.9963 0.24687-1.3685 0.0456-0.37222-0.20127-0.59389-0.6037-0.61625-1.1188l-3.5073-80.79c-0.0224-0.51508 0.15641-1.1006 0.49702-1.6277 0.34058-0.52717 0.81509-0.95278 1.3191-1.1832m19.455-8.8951 0.96115-0.43944c0.50403-0.23044 0.9963-0.24687 1.3685-0.0456 0.37221 0.20127 0.59389 0.6037 0.61625 1.1188l3.5073 80.79c0.0224 0.51507-0.15642 1.1006-0.49701 1.6277-0.34059 0.52717-0.8151 0.95278-1.3191 1.1832l-0.96114 0.43945c-0.50403 0.23045-0.9963 0.24687-1.3685 0.0456-0.37222-0.20126-0.59389-0.60371-0.61625-1.1188l-3.5073-80.79c-0.0224-0.51507 0.15642-1.1006 0.49701-1.6277 0.34059-0.52716 0.8151-0.95278 1.3191-1.1832m19.455-8.8951 0.96115-0.43943c0.50403-0.23045 0.99629-0.24688 1.3685-0.0456 0.37221 0.20127 0.59388 0.60371 0.61624 1.1188l3.5073 80.79c0.0224 0.51507-0.15642 1.1006-0.49701 1.6277-0.34059 0.52718-0.8151 0.95279-1.3191 1.1832l-0.96114 0.43944c-0.50403 0.23045-0.9963 0.24687-1.3685 0.0456-0.3722-0.20126-0.59387-0.6037-0.61623-1.1188l-3.5073-80.79c-0.0224-0.51508 0.15641-1.1006 0.497-1.6278 0.3406-0.52717 0.81511-0.95279 1.3191-1.1832m19.455-8.8951 0.96115-0.43944c0.50403-0.23044 0.9963-0.24688 1.3685-0.0456 0.37222 0.20126 0.59389 0.60369 0.61625 1.1188l3.5073 80.79c0.0224 0.51508-0.15641 1.1006-0.49701 1.6278-0.34059 0.52716-0.81509 0.95278-1.3191 1.1832l-0.96114 0.43945c-0.50403 0.23045-0.9963 0.24687-1.3685 0.0456-0.37221-0.20126-0.59389-0.60369-0.61625-1.1188l-3.5073-80.79c-0.0224-0.51508 0.15643-1.1006 0.49701-1.6278 0.3406-0.52715 0.81511-0.95277 1.3191-1.1832m19.455-8.8951 0.96115-0.43942c0.50403-0.23046 0.99629-0.24687 1.3685-0.0456 0.37222 0.20126 0.59388 0.6037 0.61625 1.1188l3.5073 80.79c0.0224 0.51507-0.15642 1.1006-0.49702 1.6278-0.34058 0.52718-0.81509 0.95279-1.3191 1.1832l-0.96115 0.43944c-0.50403 0.23046-0.99629 0.24688-1.3685 0.0455-0.37221-0.20126-0.59387-0.6037-0.61624-1.1188l-3.5073-80.79c-0.0224-0.51508 0.15642-1.1006 0.49702-1.6278 0.3406-0.52715 0.81509-0.95278 1.3191-1.1832m19.455-8.8951 0.96114-0.43944c0.50403-0.23044 0.9963-0.24687 1.3685-0.0456 0.37222 0.20126 0.59389 0.60369 0.61625 1.1188l3.5073 80.79c0.0224 0.51507-0.15641 1.1006-0.497 1.6278-0.3406 0.52718-0.8151 0.95278-1.3191 1.1832l-0.96115 0.43945c-0.50404 0.23045-0.9963 0.24688-1.3685 0.0456-0.37221-0.20126-0.59389-0.60369-0.61625-1.1188l-3.5073-80.79c-0.0224-0.51508 0.15643-1.1006 0.49702-1.6278 0.3406-0.52714 0.81509-0.95277 1.3191-1.1832m19.884 0.33951 0.96115-0.43944c0.50403-0.23045 0.99629-0.24687 1.3685-0.0456 0.37222 0.20126 0.5941 0.6037 0.61625 1.1188l3.0779 71.555c0.0224 0.51507-0.15642 1.1006-0.49701 1.6277-0.34059 0.52717-0.8151 0.9528-1.3191 1.1832l-0.96116 0.43945c-0.50403 0.23046-0.9963 0.24687-1.3685 0.0456-0.37221-0.20126-0.59408-0.6037-0.61624-1.1188l-3.0779-71.555c-0.0224-0.51507 0.15642-1.1006 0.49702-1.6277 0.34059-0.52716 0.81509-0.95278 1.3191-1.1832"/>
<path style="color:#000000" fill="#9a9b9c" d="m172.72 412.94 0.95829-0.45067c0.50254-0.23633 0.99437-0.25836 1.3673-0.0612 0.37296 0.19716 0.59648 0.59734 0.62139 1.1125 0 0 3.9075 80.802 3.9075 80.802 0.0249 0.51515-0.15082 1.1031-0.48854 1.6344-0.33773 0.53136-0.80979 0.96265-1.3123 1.199l-0.95829 0.45067c-0.50254 0.23631-0.99438 0.25834-1.3673 0.0612-0.37294-0.19715-0.59647-0.59733-0.62138-1.1125 0 0-3.9076-80.802-3.9076-80.802-0.0249-0.51515 0.15083-1.1031 0.48856-1.6344 0.33771-0.53138 0.80977-0.96266 1.3123-1.199m19.397-9.122 0.9583-0.45065c0.50253-0.23633 0.99437-0.25838 1.3673-0.0612 0.37295 0.19715 0.59648 0.59733 0.6214 1.1125 0 0 3.9076 80.802 3.9076 80.802 0.0249 0.51516-0.15085 1.1031-0.48855 1.6344-0.33774 0.53134-0.80979 0.96265-1.3123 1.199l-0.95828 0.45065c-0.50253 0.23632-0.99437 0.25836-1.3673 0.0612-0.37296-0.19717-0.59648-0.59733-0.62138-1.1125 0 0-3.9076-80.802-3.9076-80.802-0.0249-0.51516 0.15081-1.1031 0.48855-1.6344 0.33773-0.53136 0.80977-0.96265 1.3123-1.199m19.397-9.122 0.95829-0.45064c0.50253-0.23634 0.99437-0.25837 1.3673-0.0612 0.37296 0.19715 0.59649 0.59734 0.6214 1.1125 0 0 3.9076 80.802 3.9076 80.802 0.0249 0.51513-0.15084 1.1031-0.48856 1.6344-0.33774 0.53138-0.80977 0.96267-1.3123 1.199l-0.95831 0.45065c-0.50251 0.23632-0.99437 0.25835-1.3673 0.0612-0.37297-0.19716-0.59649-0.59733-0.62139-1.1125 0 0-3.9076-80.802-3.9076-80.802-0.0249-0.51515 0.15082-1.1031 0.48855-1.6344 0.33774-0.53138 0.80978-0.96267 1.3123-1.199m19.397-9.122 0.95829-0.45064c0.50252-0.23633 0.99436-0.25836 1.3673-0.0612 0.37296 0.19715 0.59648 0.59732 0.62138 1.1125 0 0 3.9076 80.802 3.9076 80.802 0.0249 0.51514-0.15082 1.1031-0.48855 1.6344-0.33773 0.53137-0.80979 0.96265-1.3123 1.199l-0.95829 0.45066c-0.50252 0.23631-0.99437 0.25835-1.3673 0.0612-0.37297-0.19716-0.59648-0.59734-0.6214-1.1125 0 0-3.9076-80.802-3.9076-80.802-0.0249-0.51516 0.15083-1.1031 0.48857-1.6344 0.33771-0.53137 0.80977-0.96265 1.3123-1.199m19.397-9.122 0.95828-0.45063c0.50253-0.23633 0.99438-0.25837 1.3673-0.0612 0.37296 0.19716 0.59647 0.59732 0.62138 1.1125 0 0 3.9076 80.802 3.9076 80.802 0.0249 0.51513-0.15082 1.1031-0.48854 1.6344-0.33774 0.53137-0.80979 0.96266-1.3123 1.199l-0.95827 0.45065c-0.50254 0.23634-0.99439 0.25836-1.3673 0.0612-0.37296-0.19716-0.59649-0.59733-0.6214-1.1125 0 0-3.9075-80.802-3.9075-80.802-0.0249-0.51515 0.15083-1.1031 0.48853-1.6344 0.33775-0.53139 0.8098-0.96267 1.3123-1.199m19.397-9.1219 0.95827-0.45066c0.50254-0.23634 0.99438-0.25837 1.3673-0.0612 0.37296 0.19717 0.59647 0.59735 0.62139 1.1125 0 0 3.9075 80.802 3.9075 80.802 0.0249 0.51514-0.15081 1.1031-0.48855 1.6344-0.33772 0.53137-0.80978 0.96266-1.3123 1.199l-0.95829 0.45066c-0.50254 0.2363-0.99437 0.25833-1.3673 0.0612-0.37296-0.19716-0.59648-0.59734-0.62139-1.1125 0 0-3.9075-80.802-3.9075-80.802-0.0249-0.51514 0.15083-1.1031 0.48855-1.6344 0.33773-0.53139 0.80979-0.96266 1.3123-1.199m19.397-9.122 0.95828-0.45064c0.50252-0.23633 0.99437-0.25835 1.3673-0.0612 0.37296 0.19719 0.59648 0.59734 0.6214 1.1125 0 0 3.9075 80.802 3.9075 80.802 0.0249 0.51514-0.15083 1.1031-0.48856 1.6344-0.33772 0.53137-0.80978 0.96265-1.3123 1.199l-0.95827 0.45064c-0.50254 0.23635-0.99437 0.25836-1.3673 0.0612-0.37296-0.19716-0.59649-0.59734-0.6214-1.1125 0 0-3.9075-80.802-3.9075-80.802-0.0249-0.51516 0.15081-1.1031 0.48855-1.6344 0.33772-0.53138 0.80977-0.96265 1.3123-1.199m19.397-9.122 0.95829-0.45065c0.50253-0.23631 0.99437-0.25834 1.3673-0.0612 0.37298 0.19717 0.5965 0.59734 0.6214 1.1125 0 0 3.9075 80.802 3.9075 80.802 0.0249 0.51515-0.15081 1.1031-0.48855 1.6344-0.33773 0.53139-0.80978 0.96266-1.3123 1.199l-0.95829 0.45064c-0.50253 0.23634-0.99437 0.25836-1.3673 0.0612-0.37295-0.19718-0.59647-0.59733-0.62138-1.1125 0 0-3.9076-80.802-3.9076-80.802-0.0249-0.51514 0.15083-1.1031 0.48856-1.6344 0.33772-0.53138 0.80977-0.96266 1.3123-1.199m19.397-9.1219 0.95832-0.45065c0.50252-0.23631 0.99436-0.25835 1.3673-0.0612 0.37296 0.19716 0.59648 0.59734 0.62139 1.1125 0 0 3.9076 80.802 3.9076 80.802 0.0249 0.51515-0.15083 1.1031-0.48855 1.6344-0.33773 0.53137-0.80978 0.96265-1.3123 1.199l-0.9583 0.45064c-0.50252 0.23635-0.99437 0.25836-1.3673 0.0612-0.37295-0.19714-0.59647-0.59732-0.62139-1.1125 0 0-3.9076-80.802-3.9076-80.802-0.0249-0.51515 0.15083-1.1031 0.48856-1.6344 0.33772-0.53136 0.80978-0.96264 1.3123-1.199m19.397-9.122 0.95829-0.45063c0.50253-0.23635 0.99438-0.25837 1.3673-0.0612 0.37295 0.19716 0.59649 0.59733 0.62139 1.1125 0 0 3.9076 80.802 3.9076 80.802 0.0249 0.51515-0.15084 1.1031-0.48856 1.6344-0.33773 0.53138-0.80977 0.96267-1.3123 1.199l-0.9583 0.45063c-0.50252 0.23635-0.99438 0.25837-1.3673 0.0612-0.37296-0.19716-0.59649-0.59733-0.6214-1.1125 0 0-3.9076-80.802-3.9076-80.802-0.0249-0.51515 0.15084-1.1031 0.48855-1.6344 0.33774-0.53138 0.80978-0.96267 1.3123-1.199m19.397-9.1219 0.95827-0.45065c0.50254-0.23634 0.99438-0.25835 1.3674-0.0612 0.37294 0.19714 0.59647 0.59732 0.62138 1.1125 0 0 3.9075 80.802 3.9075 80.802 0.0249 0.51515-0.15081 1.1031-0.48855 1.6344-0.33772 0.53137-0.80978 0.96264-1.3123 1.199l-0.95829 0.45065c-0.50253 0.23632-0.99437 0.25835-1.3673 0.0612-0.37295-0.19715-0.59648-0.59733-0.62139-1.1125 0 0-3.9075-80.802-3.9075-80.802-0.0249-0.51515 0.15083-1.1031 0.48855-1.6344 0.33772-0.53137 0.80977-0.96265 1.3123-1.199m19.397-9.1219 0.95829-0.45064c0.50252-0.23634 0.99437-0.25836 1.3673-0.0612 0.37297 0.19718 0.59648 0.59733 0.6214 1.1125 0 0 3.9076 80.802 3.9076 80.802 0.0249 0.51514-0.15083 1.1031-0.48855 1.6344-0.33774 0.53138-0.80979 0.96266-1.3123 1.199l-0.95827 0.45065c-0.50254 0.23631-0.99439 0.25834-1.3673 0.0611-0.37298-0.19716-0.59649-0.59733-0.62139-1.1125 0 0-3.9075-80.802-3.9075-80.802-0.0249-0.51515 0.15081-1.1031 0.48854-1.6344 0.33773-0.53139 0.80978-0.96266 1.3123-1.199m19.397-9.122 0.95828-0.45065c0.50253-0.23634 0.99436-0.25835 1.3673-0.0612 0.37296 0.19716 0.59648 0.59734 0.62139 1.1125 0 0 3.9075 80.802 3.9075 80.802 0.0249 0.51516-0.15082 1.1031-0.48856 1.6344-0.33772 0.53138-0.80976 0.96265-1.3123 1.199l-0.9583 0.45064c-0.50253 0.23632-0.99437 0.25835-1.3673 0.0612-0.37297-0.19719-0.59648-0.59734-0.6214-1.1125 0 0-3.9075-80.802-3.9075-80.802-0.0249-0.51514 0.15082-1.1031 0.48856-1.6344 0.33771-0.53138 0.80978-0.96266 1.3123-1.199m19.397-9.122 0.95828-0.45066c0.50254-0.2363 0.99437-0.25833 1.3673-0.0612 0.37295 0.19716 0.59649 0.59734 0.62139 1.1125 0 0 3.9075 80.802 3.9075 80.802 0.0249 0.51514-0.15082 1.1031-0.48855 1.6344-0.33772 0.53138-0.80979 0.96265-1.3123 1.199l-0.95827 0.45066c-0.50252 0.23634-0.99437 0.25837-1.3673 0.0612-0.37297-0.19716-0.59648-0.59734-0.6214-1.1125 0 0-3.9075-80.802-3.9075-80.802-0.0249-0.51514 0.15082-1.1031 0.48856-1.6344 0.33771-0.53137 0.80978-0.96266 1.3123-1.199m19.397-9.1219 0.95828-0.45065c0.50254-0.23634 0.99438-0.25836 1.3673-0.0612 0.37296 0.19717 0.59648 0.59734 0.62138 1.1125 0 0 3.9076 80.802 3.9076 80.802 0.0249 0.51515-0.15082 1.1031-0.48853 1.6344-0.33775 0.53139-0.8098 0.96267-1.3123 1.199l-0.95827 0.45063c-0.50254 0.23633-0.99439 0.25837-1.3674 0.0612-0.37295-0.19716-0.59647-0.59732-0.62138-1.1125 0 0-3.9076-80.802-3.9076-80.802-0.0249-0.51513 0.15082-1.1031 0.48854-1.6344 0.33774-0.53137 0.80979-0.96266 1.3123-1.199m19.397-9.1219 0.95828-0.45066c0.50253-0.23631 0.99438-0.25835 1.3673-0.0612 0.37297 0.19716 0.59649 0.59734 0.6214 1.1125 0 0 3.9076 80.802 3.9076 80.802 0.0249 0.51516-0.15083 1.1031-0.48855 1.6344-0.33773 0.53138-0.80978 0.96265-1.3123 1.199l-0.95828 0.45064c-0.50253 0.23633-0.99437 0.25837-1.3673 0.0612-0.37295-0.19715-0.59647-0.59732-0.62138-1.1125 0 0-3.9076-80.802-3.9076-80.802-0.0249-0.51514 0.15083-1.1031 0.48855-1.6344 0.33774-0.53136 0.80979-0.96265 1.3123-1.199m19.397-9.122 0.9583-0.45065c0.50251-0.23632 0.99437-0.25835 1.3673-0.0612 0.37297 0.19716 0.59649 0.59733 0.62141 1.1125 0 0 3.9076 80.802 3.9076 80.802 0.0249 0.51515-0.15084 1.1031-0.48857 1.6344-0.33772 0.53138-0.80977 0.96267-1.3123 1.199l-0.95829 0.45065c-0.50253 0.23633-0.99437 0.25837-1.3673 0.0611-0.37296-0.19715-0.59649-0.59734-0.6214-1.1125 0 0-3.9076-80.802-3.9076-80.802-0.0249-0.51513 0.15084-1.1031 0.48856-1.6344 0.33774-0.53138 0.80977-0.96267 1.3123-1.199m19.397-9.122 0.95828-0.45065c0.50253-0.23632 0.99437-0.25836 1.3673-0.0612 0.37296 0.19717 0.59648 0.59733 0.62138 1.1125 0 0 3.9076 80.802 3.9076 80.802 0.0249 0.51516-0.15081 1.1031-0.48855 1.6344-0.33773 0.53137-0.80977 0.96265-1.3123 1.199l-0.95829 0.45065c-0.50254 0.23633-0.99438 0.25838-1.3673 0.0612-0.37295-0.19715-0.59648-0.59733-0.6214-1.1125 0 0-3.9076-80.802-3.9076-80.802-0.0249-0.51516 0.15085-1.1031 0.48855-1.6344 0.33774-0.53134 0.80979-0.96265 1.3123-1.199m19.397-9.1219 0.95829-0.45067c0.50254-0.23631 0.99438-0.25834 1.3673-0.0612 0.37295 0.19714 0.59647 0.59733 0.62138 1.1125 0 0 3.9076 80.802 3.9076 80.802 0.0249 0.51515-0.15082 1.1031-0.48856 1.6344-0.33771 0.53138-0.80977 0.96266-1.3123 1.199l-0.95829 0.45067c-0.50254 0.23633-0.99437 0.25836-1.3673 0.0612-0.37296-0.19715-0.59648-0.59733-0.62139-1.1125 0 0-3.9075-80.802-3.9075-80.802-0.0249-0.51515 0.15082-1.1031 0.48854-1.6344 0.33773-0.53136 0.80979-0.96265 1.3123-1.199"/>
<g fill="#282828" transform="translate(-9.6773,-61.856)">
<path style="color:#000000" d="m219 553.33 389.52 6.0372 2.456 29.528-390.58 9.4581z" transform="matrix(.91905 -.39415 0 1 0 0)"/>
<path style="color:#000000" d="m71.793 434.67 129.49-5.3237 2.7406 60.501h-129.42z" transform="matrix(.99437 .10593 0 1 0 0)"/>
</g>
<path style="color:#000000" fill="#505050" d="m22.886 386.55 369.63-140.17 169.78 0.39-369.43 157.04z"/>
<path style="color:#000000" fill="#353535" d="m22.989 384.37 170.75 1.0763 1.5591 33.998-170.57-1.5575z" transform="matrix(.9955 .094808 0 1 0 0)"/>
<path style="color:#000000" fill="#2f2f2f" d="m192.87 403.81 369.43-157.04 1.32 25.04-369.19 166.14z"/>
<path fill="#ea0011" d="m426.15 246.45 106.94 0.25025-139.38 26.588 52.315 5.6864-131.36 30.581 35.241 7.5517-221.75 64.947 163.85-67.464-28.948-7.5517 107.9-32.613-22.745-6.8236z"/>
</g>
</g>
</svg>
